# xmcd
# Copyright (C) 1995-1998 Ti Kan
#
# Track frame offsets:
#       150
#       21721
#       29834
#       43551
#       59445
#
# Disc length: 957 seconds
#
# Revision: 0
# Processed by: cddbd v1.5.2PL0 Copyright (c) Steve Scherf et al.
# Submitted via: CD-Transfer v1.0
#
DISCID=4703bb05
DTITLE=Weihnachten 10 - 
DYEAR=10
DGENRE=
TTITLE0=Orig. Zillertal Sound/Wenn´s Weihnacht Weacht Im Zillertal
TTITLE1=Orig. Zillertal Sound/Weihnacht In Der Stub´n
TTITLE2=Orig. Zillertal Sound/Ein Stilles Gebet
TTITLE3=Orig. Zillertal Sound/Es Fällt Schnee In Den Bergen
TTITLE4=Orig. Zillertal Sound/Ave Maria
EXTD=
EXTT0=
EXTT1=
EXTT2=
EXTT3=
EXTT4=
PLAYORDER=
